<svg xmlns="http://www.w3.org/2000/svg" viewBox="0 0 64 64" width="64" height="64" role="img" aria-label="Solar horned sigil">
  <circle cx="32" cy="32" r="32" fill="#ca8a04"/>
  <path d="M26 24 C18 23 12 19 9 11 C13 21 18 28 26 30 Z" fill="#f8fafc"/>
  <path d="M38 24 C46 23 52 19 55 11 C51 21 46 28 38 30 Z" fill="#f8fafc"/>
  <path d="M24 21 H40 L42 33 C42 42 38 49 32 49 C26 49 22 42 22 33 Z" fill="#f8fafc"/>
  <circle cx="27" cy="31" r="2.4" fill="#ca8a04"/>
  <circle cx="37" cy="31" r="2.4" fill="#ca8a04"/>
  <ellipse cx="32" cy="43" rx="4.5" ry="3.2" fill="#ca8a04"/>
</svg>
